<mxfile host="app.diagrams.net" agent="Mozilla/5.0 (Windows NT 10.0; Win64; x64) AppleWebKit/537.36 (KHTML, like Gecko) Chrome/136.0.0.0 Safari/537.36 Edg/136.0.0.0" version="26.2.14">
  <diagram name="Page-1" id="wuPbhk-AxIQMI7xWsHhP">
    <mxGraphModel dx="786" dy="506" grid="1" gridSize="10" guides="1" tooltips="1" connect="1" arrows="1" fold="1" page="1" pageScale="1" pageWidth="850" pageHeight="1100" math="0" shadow="0">
      <root>
        <mxCell id="0" />
        <mxCell id="1" parent="0" />
        <mxCell id="V0-bn8zC738BH66rxdFM-1" value="Buyer" style="whiteSpace=wrap;html=1;align=center;" vertex="1" parent="1">
          <mxGeometry x="80" y="80" width="100" height="40" as="geometry" />
        </mxCell>
        <mxCell id="V0-bn8zC738BH66rxdFM-2" value="ServiceRequest" style="whiteSpace=wrap;html=1;align=center;" vertex="1" parent="1">
          <mxGeometry x="320" y="180" width="100" height="40" as="geometry" />
        </mxCell>
        <mxCell id="V0-bn8zC738BH66rxdFM-3" value="Category" style="whiteSpace=wrap;html=1;align=center;" vertex="1" parent="1">
          <mxGeometry x="600" y="80" width="100" height="40" as="geometry" />
        </mxCell>
        <mxCell id="V0-bn8zC738BH66rxdFM-4" value="Orders" style="whiteSpace=wrap;html=1;align=center;" vertex="1" parent="1">
          <mxGeometry x="80" y="280" width="100" height="40" as="geometry" />
        </mxCell>
        <mxCell id="V0-bn8zC738BH66rxdFM-5" value="OrderItem" style="whiteSpace=wrap;html=1;align=center;" vertex="1" parent="1">
          <mxGeometry x="290" y="320" width="100" height="40" as="geometry" />
        </mxCell>
        <mxCell id="V0-bn8zC738BH66rxdFM-6" value="ServiceProvider" style="whiteSpace=wrap;html=1;align=center;" vertex="1" parent="1">
          <mxGeometry x="240" y="80" width="100" height="40" as="geometry" />
        </mxCell>
        <mxCell id="V0-bn8zC738BH66rxdFM-7" value="Farmer" style="whiteSpace=wrap;html=1;align=center;" vertex="1" parent="1">
          <mxGeometry x="450" y="80" width="100" height="40" as="geometry" />
        </mxCell>
        <mxCell id="V0-bn8zC738BH66rxdFM-8" value="Product" style="whiteSpace=wrap;html=1;align=center;" vertex="1" parent="1">
          <mxGeometry x="560" y="200" width="100" height="40" as="geometry" />
        </mxCell>
        <mxCell id="V0-bn8zC738BH66rxdFM-9" value="" style="edgeStyle=orthogonalEdgeStyle;fontSize=12;html=1;endArrow=ERzeroToMany;startArrow=ERmandOne;rounded=0;exitX=0.433;exitY=1.05;exitDx=0;exitDy=0;exitPerimeter=0;entryX=0.5;entryY=0;entryDx=0;entryDy=0;" edge="1" parent="1" source="V0-bn8zC738BH66rxdFM-1" target="V0-bn8zC738BH66rxdFM-4">
          <mxGeometry width="100" height="100" relative="1" as="geometry">
            <mxPoint x="124.35000000000005" y="159.99999999999994" as="sourcePoint" />
            <mxPoint x="135.65" y="329.32" as="targetPoint" />
          </mxGeometry>
        </mxCell>
        <mxCell id="V0-bn8zC738BH66rxdFM-11" value="" style="edgeStyle=orthogonalEdgeStyle;fontSize=12;html=1;endArrow=ERzeroToMany;startArrow=ERmandOne;rounded=0;exitX=0.25;exitY=1;exitDx=0;exitDy=0;entryX=0;entryY=0.5;entryDx=0;entryDy=0;" edge="1" parent="1" source="V0-bn8zC738BH66rxdFM-6" target="V0-bn8zC738BH66rxdFM-2">
          <mxGeometry width="100" height="100" relative="1" as="geometry">
            <mxPoint x="250" y="150" as="sourcePoint" />
            <mxPoint x="257" y="308" as="targetPoint" />
          </mxGeometry>
        </mxCell>
        <mxCell id="V0-bn8zC738BH66rxdFM-12" value="" style="edgeStyle=orthogonalEdgeStyle;fontSize=12;html=1;endArrow=ERzeroToMany;startArrow=ERmandOne;rounded=0;entryX=1;entryY=0.5;entryDx=0;entryDy=0;exitX=0.5;exitY=1;exitDx=0;exitDy=0;" edge="1" parent="1" source="V0-bn8zC738BH66rxdFM-7" target="V0-bn8zC738BH66rxdFM-2">
          <mxGeometry width="100" height="100" relative="1" as="geometry">
            <mxPoint x="500" y="150" as="sourcePoint" />
            <mxPoint x="470" y="250" as="targetPoint" />
          </mxGeometry>
        </mxCell>
        <mxCell id="V0-bn8zC738BH66rxdFM-13" value="" style="edgeStyle=orthogonalEdgeStyle;fontSize=12;html=1;endArrow=ERzeroToMany;startArrow=ERmandOne;rounded=0;exitX=0;exitY=0.5;exitDx=0;exitDy=0;entryX=0;entryY=0.5;entryDx=0;entryDy=0;" edge="1" parent="1" source="V0-bn8zC738BH66rxdFM-7" target="V0-bn8zC738BH66rxdFM-8">
          <mxGeometry width="100" height="100" relative="1" as="geometry">
            <mxPoint x="460" y="170" as="sourcePoint" />
            <mxPoint x="467" y="328" as="targetPoint" />
            <Array as="points">
              <mxPoint x="430" y="100" />
              <mxPoint x="430" y="160" />
              <mxPoint x="470" y="160" />
              <mxPoint x="470" y="220" />
            </Array>
          </mxGeometry>
        </mxCell>
        <mxCell id="V0-bn8zC738BH66rxdFM-14" value="" style="edgeStyle=orthogonalEdgeStyle;fontSize=12;html=1;endArrow=ERzeroToMany;startArrow=ERmandOne;rounded=0;exitX=1;exitY=0.5;exitDx=0;exitDy=0;entryX=1;entryY=0.5;entryDx=0;entryDy=0;" edge="1" parent="1" source="V0-bn8zC738BH66rxdFM-3" target="V0-bn8zC738BH66rxdFM-8">
          <mxGeometry width="100" height="100" relative="1" as="geometry">
            <mxPoint x="710" y="110" as="sourcePoint" />
            <mxPoint x="717" y="268" as="targetPoint" />
            <Array as="points">
              <mxPoint x="730" y="100" />
              <mxPoint x="730" y="220" />
            </Array>
          </mxGeometry>
        </mxCell>
        <mxCell id="V0-bn8zC738BH66rxdFM-15" value="" style="edgeStyle=orthogonalEdgeStyle;fontSize=12;html=1;endArrow=ERzeroToMany;startArrow=ERmandOne;rounded=0;exitX=0.5;exitY=1;exitDx=0;exitDy=0;entryX=0;entryY=0.5;entryDx=0;entryDy=0;" edge="1" parent="1" source="V0-bn8zC738BH66rxdFM-4" target="V0-bn8zC738BH66rxdFM-5">
          <mxGeometry width="100" height="100" relative="1" as="geometry">
            <mxPoint x="173" y="172" as="sourcePoint" />
            <mxPoint x="180" y="330" as="targetPoint" />
          </mxGeometry>
        </mxCell>
        <mxCell id="V0-bn8zC738BH66rxdFM-16" value="" style="edgeStyle=orthogonalEdgeStyle;fontSize=12;html=1;endArrow=ERzeroToMany;startArrow=ERmandOne;rounded=0;exitX=1;exitY=0.5;exitDx=0;exitDy=0;entryX=0.5;entryY=1;entryDx=0;entryDy=0;" edge="1" parent="1" source="V0-bn8zC738BH66rxdFM-5" target="V0-bn8zC738BH66rxdFM-8">
          <mxGeometry width="100" height="100" relative="1" as="geometry">
            <mxPoint x="510" y="261" as="sourcePoint" />
            <mxPoint x="517" y="419" as="targetPoint" />
          </mxGeometry>
        </mxCell>
      </root>
    </mxGraphModel>
  </diagram>
</mxfile>
